<svg xmlns="http://www.w3.org/2000/svg" width="76" height="20" fill="none"><path d="M 10.368 15.744 C 9.904 15.744 9.56 15.656 9.336 15.48 C 9.114 15.309 8.989 15.04 9 14.76 L 9.168 13.968 C 9.04 14.176 8.824 14.424 8.52 14.712 C 8.216 14.984 7.816 15.232 7.32 15.456 C 6.824 15.664 6.224 15.768 5.52 15.768 C 4.784 15.771 4.055 15.616 3.384 15.312 C 2.726 14.99 2.132 14.551 1.632 14.016 C 1.134 13.452 0.728 12.812 0.432 12.12 C 0.142 11.387 -0.005 10.605 0 9.816 C 0 9.032 0.144 8.296 0.432 7.608 C 0.727 6.917 1.142 6.284 1.656 5.736 C 2.153 5.203 2.748 4.771 3.408 4.464 C 4.067 4.147 4.789 3.983 5.52 3.984 C 6.176 3.984 6.728 4.072 7.176 4.248 C 7.64 4.424 8.032 4.648 8.352 4.92 C 8.672 5.176 8.936 5.448 9.144 5.736 L 9 5.04 C 9 4.688 9.112 4.424 9.336 4.248 C 9.56 4.056 9.912 3.96 10.392 3.96 C 10.84 3.96 11.16 4.032 11.352 4.176 C 11.543 4.302 11.673 4.502 11.712 4.728 C 11.76 4.952 11.784 5.208 11.784 5.496 L 11.784 14.28 C 11.784 14.552 11.76 14.8 11.712 15.024 C 11.665 15.247 11.525 15.439 11.328 15.552 C 11.136 15.68 10.816 15.744 10.368 15.744 Z M 5.952 12.96 C 6.469 12.968 6.977 12.826 7.416 12.552 C 7.849 12.279 8.205 11.899 8.448 11.448 C 8.72 10.968 8.856 10.44 8.856 9.864 C 8.856 9.24 8.72 8.696 8.448 8.232 C 8.191 7.782 7.818 7.41 7.368 7.152 C 6.929 6.878 6.421 6.736 5.904 6.744 C 5.312 6.744 4.784 6.888 4.32 7.176 C 3.858 7.446 3.476 7.836 3.216 8.304 C 2.96 8.768 2.832 9.296 2.832 9.888 C 2.816 10.984 3.395 12.003 4.344 12.552 C 4.824 12.824 5.36 12.96 5.952 12.96 Z M 20.312 20.592 C 19.753 20.594 19.196 20.522 18.656 20.376 C 18.157 20.259 17.673 20.081 17.216 19.848 C 16.847 19.658 16.508 19.415 16.208 19.128 C 15.968 18.872 15.848 18.632 15.848 18.408 C 15.848 18.184 15.88 17.992 15.944 17.832 C 16.024 17.672 16.136 17.512 16.28 17.352 C 16.427 17.203 16.579 17.059 16.736 16.92 C 16.864 16.824 17.032 16.776 17.24 16.776 C 17.416 16.776 17.584 16.84 17.744 16.968 C 17.92 17.096 18.12 17.24 18.344 17.4 C 18.568 17.56 18.84 17.704 19.16 17.832 C 19.48 17.96 19.888 18.024 20.384 18.024 C 20.8 18.024 21.184 17.952 21.536 17.808 C 21.888 17.664 22.184 17.448 22.424 17.16 C 22.68 16.888 22.88 16.56 23.024 16.176 C 23.174 15.761 23.247 15.321 23.24 14.88 L 23.216 4.944 C 23.248 4.576 23.376 4.32 23.6 4.176 C 23.824 4.016 24.168 3.936 24.632 3.936 C 25.064 3.936 25.376 4 25.568 4.128 C 25.76 4.24 25.88 4.408 25.928 4.632 C 25.976 4.84 26 5.072 26 5.328 L 26 15.048 C 26 15.928 25.848 16.712 25.544 17.4 C 25.26 18.061 24.834 18.651 24.296 19.128 C 23.768 19.608 23.16 19.968 22.472 20.208 C 21.782 20.467 21.05 20.597 20.312 20.592 Z M 20.048 15.48 C 19.322 15.485 18.602 15.338 17.936 15.048 C 17.292 14.757 16.713 14.341 16.232 13.824 C 15.746 13.287 15.357 12.67 15.08 12 C 14.804 11.272 14.665 10.499 14.672 9.72 C 14.672 8.92 14.808 8.176 15.08 7.488 C 15.357 6.818 15.746 6.201 16.232 5.664 C 16.713 5.147 17.292 4.731 17.936 4.44 C 18.59 4.136 19.303 3.981 20.024 3.984 C 20.744 3.984 21.368 4.128 21.896 4.416 C 22.438 4.686 22.901 5.091 23.24 5.592 C 23.592 6.104 23.856 6.712 24.032 7.416 C 24.224 8.12 24.32 8.896 24.32 9.744 C 24.32 10.912 24.16 11.928 23.84 12.792 C 23.52 13.656 23.048 14.32 22.424 14.784 C 21.8 15.248 21.008 15.48 20.048 15.48 Z M 20.312 12.768 C 20.856 12.768 21.336 12.64 21.752 12.384 C 22.184 12.112 22.52 11.744 22.76 11.28 C 23.016 10.816 23.144 10.296 23.144 9.72 C 23.144 9.128 23.016 8.608 22.76 8.16 C 22.534 7.711 22.184 7.336 21.752 7.08 C 21.308 6.821 20.802 6.688 20.288 6.696 C 19.771 6.688 19.263 6.83 18.824 7.104 C 18.407 7.361 18.067 7.726 17.84 8.16 C 17.6 8.608 17.48 9.128 17.48 9.72 C 17.48 10.312 17.6 10.84 17.84 11.304 C 18.096 11.752 18.432 12.112 18.848 12.384 C 19.28 12.64 19.768 12.768 20.312 12.768 Z M 35.23 15.936 C 34.19 15.936 33.278 15.768 32.494 15.432 C 31.757 15.118 31.095 14.652 30.55 14.064 C 30.045 13.483 29.646 12.816 29.374 12.096 C 29.119 11.363 28.989 10.592 28.99 9.816 C 28.99 8.664 29.254 7.64 29.782 6.744 C 30.304 5.854 31.059 5.124 31.966 4.632 C 32.91 4.12 33.99 3.864 35.206 3.864 C 36.07 3.864 36.83 4 37.486 4.272 C 38.142 4.544 38.686 4.904 39.118 5.352 C 39.548 5.759 39.891 6.249 40.126 6.792 C 40.366 7.32 40.486 7.832 40.486 8.328 C 40.486 9.176 40.278 9.792 39.862 10.176 C 39.462 10.56 38.958 10.752 38.35 10.752 L 32.014 10.752 C 32.03 11.296 32.198 11.768 32.518 12.168 C 32.854 12.568 33.27 12.88 33.766 13.104 C 34.261 13.309 34.791 13.415 35.326 13.416 C 35.726 13.416 36.078 13.392 36.382 13.344 C 36.702 13.296 36.974 13.24 37.198 13.176 C 37.422 13.096 37.614 13.016 37.774 12.936 L 38.254 12.72 C 38.398 12.656 38.534 12.616 38.662 12.6 C 38.846 12.586 39.03 12.628 39.19 12.72 C 39.366 12.816 39.51 12.984 39.622 13.224 C 39.718 13.384 39.782 13.536 39.814 13.68 C 39.862 13.808 39.886 13.936 39.886 14.064 C 39.886 14.384 39.694 14.688 39.31 14.976 C 38.926 15.248 38.382 15.472 37.678 15.648 C 36.99 15.84 36.174 15.936 35.23 15.936 Z M 32.014 9.048 L 36.934 9.048 C 37.206 9.048 37.414 9.008 37.558 8.928 C 37.702 8.832 37.774 8.64 37.774 8.352 C 37.778 7.995 37.659 7.648 37.438 7.368 C 37.204 7.056 36.889 6.815 36.526 6.672 C 36.142 6.496 35.694 6.408 35.182 6.408 C 34.59 6.408 34.054 6.528 33.574 6.768 C 33.094 6.992 32.71 7.304 32.422 7.704 C 32.15 8.104 32.014 8.552 32.014 9.048 Z M 44.832 15.768 C 44.4 15.768 44.08 15.696 43.872 15.552 C 43.69 15.438 43.561 15.257 43.512 15.048 C 43.462 14.803 43.438 14.554 43.44 14.304 L 43.44 5.328 C 43.44 5.072 43.464 4.84 43.512 4.632 C 43.561 4.422 43.702 4.246 43.896 4.152 C 44.104 4.024 44.424 3.96 44.856 3.96 C 45.24 3.96 45.528 4.008 45.72 4.104 C 45.912 4.2 46.04 4.32 46.104 4.464 C 46.168 4.608 46.2 4.752 46.2 4.896 C 46.216 5.04 46.232 5.152 46.248 5.232 L 46.152 6 C 46.248 5.744 46.408 5.496 46.632 5.256 C 46.856 5.016 47.128 4.8 47.448 4.608 C 47.768 4.4 48.112 4.24 48.48 4.128 C 48.859 4.001 49.256 3.936 49.656 3.936 C 50.408 3.936 51.08 4.072 51.672 4.344 C 52.256 4.61 52.773 5.004 53.184 5.496 C 53.616 5.992 53.944 6.584 54.168 7.272 C 54.392 7.944 54.504 8.704 54.504 9.552 L 54.504 14.328 C 54.504 14.6 54.472 14.848 54.408 15.072 C 54.359 15.281 54.23 15.462 54.048 15.576 C 53.856 15.704 53.528 15.768 53.064 15.768 C 52.616 15.768 52.288 15.696 52.08 15.552 C 51.888 15.445 51.749 15.262 51.696 15.048 C 51.646 14.803 51.622 14.554 51.624 14.304 L 51.624 9.528 C 51.624 8.952 51.52 8.456 51.312 8.04 C 51.132 7.637 50.83 7.301 50.448 7.08 C 50.08 6.856 49.608 6.744 49.032 6.744 C 48.472 6.744 47.984 6.864 47.568 7.104 C 47.159 7.321 46.825 7.655 46.608 8.064 C 46.384 8.48 46.272 8.968 46.272 9.528 L 46.272 14.328 C 46.272 14.6 46.248 14.848 46.2 15.072 C 46.148 15.286 46.009 15.469 45.816 15.576 C 45.624 15.704 45.296 15.768 44.832 15.768 Z M 63.403 15.792 C 62.619 15.792 61.947 15.712 61.387 15.552 C 60.827 15.392 60.371 15.144 60.019 14.808 C 59.667 14.472 59.403 14.04 59.227 13.512 C 59.067 12.968 58.987 12.328 58.987 11.592 L 58.987 1.416 C 58.987 1.128 59.011 0.88 59.059 0.672 C 59.12 0.468 59.258 0.296 59.443 0.192 C 59.651 0.064 59.971 0 60.403 0 C 60.851 0 61.171 0.064 61.363 0.192 C 61.56 0.305 61.7 0.497 61.747 0.72 C 61.811 0.928 61.843 1.16 61.843 1.416 L 61.843 11.496 C 61.843 11.832 61.867 12.104 61.915 12.312 C 61.979 12.52 62.067 12.68 62.179 12.792 C 62.307 12.888 62.467 12.96 62.659 13.008 C 62.867 13.04 63.115 13.056 63.403 13.056 C 63.707 13.056 63.963 13.08 64.171 13.128 C 64.384 13.168 64.568 13.3 64.675 13.488 C 64.787 13.664 64.843 13.96 64.843 14.376 C 64.843 14.824 64.771 15.152 64.627 15.36 C 64.507 15.546 64.317 15.676 64.099 15.72 C 63.891 15.768 63.659 15.792 63.403 15.792 Z M 58.003 4.2 L 60.475 4.224 L 63.787 4.128 C 64.059 4.128 64.299 4.16 64.507 4.224 C 64.731 4.272 64.907 4.4 65.035 4.608 C 65.163 4.8 65.227 5.12 65.227 5.568 C 65.227 5.984 65.163 6.296 65.035 6.504 C 64.924 6.698 64.744 6.844 64.531 6.912 C 64.295 6.963 64.053 6.987 63.811 6.984 L 60.595 6.936 L 57.931 6.96 C 57.531 6.944 57.251 6.832 57.091 6.624 C 56.947 6.4 56.875 6.04 56.875 5.544 C 56.875 5.08 56.963 4.744 57.139 4.536 C 57.331 4.312 57.619 4.2 58.003 4.2 Z M 69.393 15.792 C 68.96 15.792 68.64 15.72 68.433 15.576 C 68.247 15.456 68.117 15.265 68.073 15.048 C 68.023 14.803 67.998 14.554 68 14.304 L 68 5.4 C 68 5.112 68.024 4.864 68.072 4.656 C 68.112 4.443 68.244 4.259 68.432 4.152 C 68.64 4.024 68.968 3.96 69.416 3.96 C 69.848 3.96 70.16 4.016 70.352 4.128 C 70.56 4.24 70.688 4.384 70.736 4.56 C 70.8 4.72 70.832 4.88 70.832 5.04 L 70.64 5.472 C 70.72 5.344 70.832 5.192 70.976 5.016 C 71.12 4.824 71.312 4.64 71.552 4.464 C 71.792 4.272 72.08 4.12 72.416 4.008 C 72.752 3.88 73.152 3.816 73.616 3.816 C 73.808 3.816 74.008 3.84 74.216 3.888 C 74.44 3.92 74.656 3.976 74.864 4.056 C 75.088 4.12 75.288 4.208 75.464 4.32 C 75.64 4.432 75.776 4.568 75.872 4.728 C 75.97 4.878 76.02 5.053 76.016 5.232 C 76.016 5.744 75.888 6.176 75.632 6.528 C 75.376 6.88 75.072 7.056 74.72 7.056 C 74.48 7.056 74.304 7.032 74.192 6.984 C 74.089 6.941 73.992 6.885 73.904 6.816 C 73.814 6.737 73.707 6.68 73.592 6.648 C 73.464 6.6 73.256 6.576 72.968 6.576 C 72.456 6.572 71.957 6.741 71.552 7.056 C 71.344 7.216 71.176 7.424 71.048 7.68 C 70.916 7.94 70.85 8.228 70.856 8.52 L 70.856 14.352 C 70.856 14.624 70.832 14.872 70.784 15.096 C 70.732 15.31 70.593 15.493 70.4 15.6 C 70.192 15.728 69.856 15.792 69.392 15.792 Z" fill="rgb(0,0,0)"></path></svg>